<svg xmlns="http://www.w3.org/2000/svg" viewBox="0 0 32 32">
  <!-- Body raised, pulsing bigger -->
  <ellipse cx="16" cy="17" rx="10" ry="9" fill="#555" opacity="0.9"/>
  <ellipse cx="13" cy="13" rx="7" ry="5" fill="#666" opacity="0.8"/>
  <ellipse cx="21" cy="14" rx="5" ry="4" fill="#5a5a5a" opacity="0.8"/>
  <circle cx="16" cy="15" r="6" fill="#cc5500"/>
  <circle cx="16" cy="15" r="4" fill="#ff8800"/>
  <circle cx="16" cy="15" r="2" fill="#ffcc44"/>
  <circle cx="13" cy="13" r="2.2" fill="#ff4400"/>
  <circle cx="19" cy="13" r="2.2" fill="#ff4400"/>
  <circle cx="13" cy="13" r="1.1" fill="#ffcc44"/>
  <circle cx="19" cy="13" r="1.1" fill="#ffcc44"/>
  <path d="M11,16 L13,17.5 L15,16 L17,17.5 L19,16 L21,17.5" stroke="#ff6600" stroke-width="1.2" fill="none"/>
  <ellipse cx="7" cy="10" rx="4" ry="2.5" fill="#444" opacity="0.6" transform="rotate(-20,7,10)"/>
  <ellipse cx="25" cy="10" rx="4" ry="2.5" fill="#444" opacity="0.6" transform="rotate(20,25,10)"/>
  <ellipse cx="8" cy="23" rx="3" ry="2" fill="#444" opacity="0.5"/>
  <ellipse cx="24" cy="23" rx="3" ry="2" fill="#444" opacity="0.5"/>
  <circle cx="5" cy="7" r="1.2" fill="#ff6600" opacity="0.9"/>
  <circle cx="27" cy="7" r="1" fill="#ff8800" opacity="0.9"/>
  <circle cx="9" cy="26" r="1" fill="#cc4400" opacity="0.7"/>
  <circle cx="23" cy="27" r="1.2" fill="#ff4400" opacity="0.7"/>
</svg>
