<svg xmlns="http://www.w3.org/2000/svg" viewBox="0 0 32 32">
  <!-- Drifting right -->
  <ellipse cx="17" cy="18" rx="9" ry="8" fill="#555" opacity="0.9"/>
  <ellipse cx="14" cy="14" rx="6" ry="5" fill="#666" opacity="0.8"/>
  <ellipse cx="21" cy="15" rx="5" ry="4" fill="#5a5a5a" opacity="0.8"/>
  <circle cx="17" cy="16" r="5" fill="#cc5500"/>
  <circle cx="17" cy="16" r="3" fill="#ff8800"/>
  <circle cx="17" cy="16" r="1.5" fill="#ffcc44"/>
  <circle cx="14.5" cy="14" r="2" fill="#ff4400"/>
  <circle cx="19.5" cy="14" r="2" fill="#ff4400"/>
  <circle cx="14.5" cy="14" r="1" fill="#ffcc44"/>
  <circle cx="19.5" cy="14" r="1" fill="#ffcc44"/>
  <path d="M13,17 L14.5,18.5 L16,17 L17.5,18.5 L19,17 L20.5,18.5 L22,17" stroke="#ff6600" stroke-width="1" fill="none"/>
  <ellipse cx="8" cy="12" rx="3" ry="2" fill="#444" opacity="0.6" transform="rotate(-15,8,12)"/>
  <ellipse cx="25" cy="11" rx="3" ry="2" fill="#444" opacity="0.6" transform="rotate(30,25,11)"/>
  <circle cx="8" cy="9" r="1" fill="#ff6600" opacity="0.8"/>
  <circle cx="26" cy="8" r="0.8" fill="#ff8800" opacity="0.8"/>
</svg>
