<svg xmlns="http://www.w3.org/2000/svg" viewBox="0 0 32 32">
  <!-- Drifting left -->
  <ellipse cx="15" cy="18" rx="9" ry="8" fill="#555" opacity="0.9"/>
  <ellipse cx="12" cy="14" rx="6" ry="5" fill="#666" opacity="0.8"/>
  <ellipse cx="20" cy="15" rx="5" ry="4" fill="#5a5a5a" opacity="0.8"/>
  <circle cx="15" cy="16" r="5" fill="#cc5500"/>
  <circle cx="15" cy="16" r="3" fill="#ff8800"/>
  <circle cx="15" cy="16" r="1.5" fill="#ffcc44"/>
  <circle cx="12.5" cy="14" r="2" fill="#ff4400"/>
  <circle cx="18" cy="14" r="2" fill="#ff4400"/>
  <circle cx="12.5" cy="14" r="1" fill="#ffcc44"/>
  <circle cx="18" cy="14" r="1" fill="#ffcc44"/>
  <path d="M11,17 L12.5,18.5 L14,17 L15.5,18.5 L17,17 L18.5,18.5 L20,17" stroke="#ff6600" stroke-width="1" fill="none"/>
  <ellipse cx="7" cy="11" rx="3" ry="2" fill="#444" opacity="0.6" transform="rotate(-30,7,11)"/>
  <ellipse cx="24" cy="12" rx="3" ry="2" fill="#444" opacity="0.6" transform="rotate(15,24,12)"/>
  <circle cx="6" cy="8" r="1" fill="#ff6600" opacity="0.8"/>
  <circle cx="26" cy="9" r="0.8" fill="#ff8800" opacity="0.8"/>
</svg>
