<svg xmlns="http://www.w3.org/2000/svg" viewBox="0 0 32 32">
  <!-- Body raised -->
  <line x1="13" y1="21" x2="12" y2="30" stroke="#ddd" stroke-width="2.5"/>
  <line x1="19" y1="21" x2="20" y2="30" stroke="#ddd" stroke-width="2.5"/>
  <circle cx="12" cy="30" r="1.5" fill="#ddd"/>
  <circle cx="20" cy="30" r="1.5" fill="#ddd"/>
  <ellipse cx="16" cy="21" rx="5" ry="2" fill="#ccc"/>
  <line x1="16" y1="21" x2="16" y2="13" stroke="#ccc" stroke-width="2"/>
  <ellipse cx="16" cy="17" rx="5" ry="4" fill="none" stroke="#ccc" stroke-width="1.5"/>
  <line x1="13" y1="15" x2="19" y2="15" stroke="#ccc" stroke-width="0.8"/>
  <line x1="12" y1="17" x2="20" y2="17" stroke="#ccc" stroke-width="0.8"/>
  <line x1="13" y1="19" x2="19" y2="19" stroke="#ccc" stroke-width="0.8"/>
  <circle cx="16" cy="9" r="5" fill="#ddd"/>
  <circle cx="13.5" cy="8.5" r="1.8" fill="#222"/>
  <circle cx="18.5" cy="8.5" r="1.8" fill="#222"/>
  <ellipse cx="16" cy="10.5" rx="1" ry="0.8" fill="#333"/>
  <path d="M13,12 L16,13.5 L19,12" stroke="#ccc" stroke-width="1.5" fill="none"/>
  <line x1="11" y1="15" x2="5" y2="17" stroke="#ccc" stroke-width="2"/>
  <circle cx="5" cy="17" r="1.5" fill="#ccc"/>
  <path d="M6,12 Q3,17 6,22" stroke="#8b6a3a" stroke-width="1.5" fill="none"/>
  <line x1="6" y1="12" x2="6" y2="22" stroke="#8b6a3a" stroke-width="0.8"/>
  <line x1="6" y1="17" x2="22" y2="17" stroke="#aaa" stroke-width="1"/>
  <polygon points="22,16 25,17 22,18" fill="#aaa"/>
</svg>
