<svg xmlns="http://www.w3.org/2000/svg" viewBox="0 0 32 32">
  <!-- Wheels slightly rotated -->
  <circle cx="8" cy="26" r="5" fill="#5a3800" stroke="#3a2000" stroke-width="1"/>
  <circle cx="24" cy="26" r="5" fill="#5a3800" stroke="#3a2000" stroke-width="1"/>
  <circle cx="8" cy="26" r="2" fill="#3a2000"/>
  <circle cx="24" cy="26" r="2" fill="#3a2000"/>
  <line x1="6" y1="22" x2="10" y2="30" stroke="#3a2000" stroke-width="1"/>
  <line x1="4" y1="27" x2="12" y2="25" stroke="#3a2000" stroke-width="1"/>
  <line x1="22" y1="22" x2="26" y2="30" stroke="#3a2000" stroke-width="1"/>
  <line x1="20" y1="27" x2="28" y2="25" stroke="#3a2000" stroke-width="1"/>
  <rect x="5" y="20" width="22" height="4" rx="1" fill="#5a3800"/>
  <rect x="14" y="10" width="3" height="14" rx="1" fill="#7a5000" transform="rotate(-30 15.5 17)"/>
  <path d="M6,7 Q10,5 14,7 L13,12 Q10,13 7,12 Z" fill="#5a3800"/>
  <rect x="19" y="18" width="5" height="5" rx="1" fill="#888"/>
  <rect x="10" y="18" width="2" height="6" rx="0.5" fill="#7a5000"/>
  <rect x="20" y="18" width="2" height="6" rx="0.5" fill="#7a5000"/>
  <circle cx="27" cy="17" r="2" fill="#c8a060"/>
  <rect x="26" y="19" width="2" height="4" rx="0.5" fill="#6a4020"/>
</svg>
