<svg xmlns="http://www.w3.org/2000/svg" viewBox="0 0 32 32">
  <!-- Ground -->
  <rect x="2" y="26" width="28" height="4" rx="1" fill="#8a7a3a"/>
  <!-- Stable walls -->
  <rect x="3" y="14" width="26" height="14" rx="1" fill="#9a6a2a"/>
  <rect x="3" y="14" width="26" height="3" fill="#7a4a1a"/>
  <!-- Roof -->
  <polygon points="1,14 16,3 31,14" fill="#5a3a0a"/>
  <polygon points="3,14 16,5 29,14" fill="#6a4a1a"/>
  <!-- Roof ridge -->
  <line x1="16" y1="3" x2="16" y2="14" stroke="#4a2a0a" stroke-width="1"/>
  <!-- Stall dividers -->
  <rect x="13" y="17" width="1.5" height="11" rx="0.5" fill="#6a3a0a"/>
  <rect x="20" y="17" width="1.5" height="11" rx="0.5" fill="#6a3a0a"/>
  <!-- Hay bales -->
  <rect x="5" y="22" width="6" height="4" rx="1" fill="#ccaa22"/>
  <line x1="5" y1="24" x2="11" y2="24" stroke="#aa8811" stroke-width="0.8"/>
  <line x1="5" y1="23" x2="11" y2="23" stroke="#aa8811" stroke-width="0.5"/>
  <!-- Spear rack in middle stall -->
  <rect x="15.5" y="18" width="1" height="8" rx="0.3" fill="#7a5a2a"/>
  <line x1="14" y1="20" x2="18" y2="20" stroke="#7a5a2a" stroke-width="0.8"/>
  <line x1="14" y1="22" x2="18" y2="22" stroke="#7a5a2a" stroke-width="0.8"/>
  <polygon points="16,17 15.3,19 16.7,19" fill="#aaaaaa"/>
  <!-- Horseshoe on wall -->
  <path d="M23,20 Q21,17 23,15 Q25,13 27,15 Q29,17 27,20" stroke="#888888" stroke-width="1.5" fill="none"/>
  <!-- Water trough -->
  <rect x="22" y="22" width="7" height="3" rx="0.5" fill="#6a3a0a"/>
  <rect x="22.5" y="22.5" width="6" height="2" rx="0.3" fill="#3388aa"/>
</svg>
