<svg xmlns="http://www.w3.org/2000/svg" viewBox="0 0 32 32">
  <!-- Body raised 1px -->
  <rect x="10" y="13" width="12" height="16" rx="4" fill="#6b4226"/>
  <line x1="13" y1="13" x2="13" y2="29" stroke="#4a2a10" stroke-width="0.8"/>
  <line x1="19" y1="13" x2="19" y2="29" stroke="#4a2a10" stroke-width="0.8"/>
  <line x1="10" y1="19" x2="22" y2="19" stroke="#4a2a10" stroke-width="0.8"/>
  <line x1="10" y1="24" x2="22" y2="24" stroke="#4a2a10" stroke-width="0.8"/>
  <circle cx="16" cy="9" r="8" fill="#2d7a1b"/>
  <circle cx="13" cy="8" r="2" fill="#111"/>
  <circle cx="19" cy="8" r="2" fill="#111"/>
  <circle cx="13" cy="7.5" r="1" fill="#ddff44"/>
  <circle cx="19" cy="7.5" r="1" fill="#ddff44"/>
  <path d="M11,6 Q13,5 15,6" stroke="#1a5a0a" stroke-width="1.5" fill="none"/>
  <path d="M17,6 Q19,5 21,6" stroke="#1a5a0a" stroke-width="1.5" fill="none"/>
  <path d="M12,12 Q16,13.5 20,12" stroke="#1a3a0a" stroke-width="1.5" fill="none"/>
  <ellipse cx="5" cy="15" rx="6" ry="3" fill="#6b4226" transform="rotate(-25,5,15)"/>
  <ellipse cx="27" cy="15" rx="6" ry="3" fill="#6b4226" transform="rotate(25,27,15)"/>
  <circle cx="3" cy="11" r="3" fill="#2d7a1b"/>
  <circle cx="29" cy="11" r="3" fill="#2d7a1b"/>
  <circle cx="6" cy="9" r="2.5" fill="#3a9a20"/>
  <circle cx="26" cy="9" r="2.5" fill="#3a9a20"/>
  <ellipse cx="12" cy="29" rx="3" ry="2" fill="#4a2a10" transform="rotate(-15,12,29)"/>
  <ellipse cx="20" cy="29" rx="3" ry="2" fill="#4a2a10" transform="rotate(15,20,29)"/>
</svg>
