<svg xmlns="http://www.w3.org/2000/svg" viewBox="0 0 32 32">
  <rect x="10" y="14" width="12" height="16" rx="4" fill="#6b4226"/>
  <line x1="13" y1="14" x2="13" y2="30" stroke="#4a2a10" stroke-width="0.8"/>
  <line x1="19" y1="14" x2="19" y2="30" stroke="#4a2a10" stroke-width="0.8"/>
  <line x1="10" y1="20" x2="22" y2="20" stroke="#4a2a10" stroke-width="0.8"/>
  <line x1="10" y1="25" x2="22" y2="25" stroke="#4a2a10" stroke-width="0.8"/>
  <circle cx="16" cy="10" r="8" fill="#2d7a1b"/>
  <circle cx="13" cy="9" r="2" fill="#111"/>
  <circle cx="19" cy="9" r="2" fill="#111"/>
  <circle cx="13" cy="8.5" r="1" fill="#ddff44"/>
  <circle cx="19" cy="8.5" r="1" fill="#ddff44"/>
  <path d="M11,7 Q13,6 15,7" stroke="#1a5a0a" stroke-width="1.5" fill="none"/>
  <path d="M17,7 Q19,6 21,7" stroke="#1a5a0a" stroke-width="1.5" fill="none"/>
  <path d="M12,13 Q16,14.5 20,13" stroke="#1a3a0a" stroke-width="1.5" fill="none"/>
  <!-- Opposite to frame 1 -->
  <ellipse cx="27" cy="18" rx="6" ry="3" fill="#6b4226" transform="rotate(10,27,18)"/>
  <ellipse cx="5" cy="14" rx="6" ry="3" fill="#6b4226" transform="rotate(-35,5,14)"/>
  <circle cx="29" cy="15" r="3" fill="#2d7a1b"/>
  <circle cx="3" cy="10" r="3" fill="#2d7a1b"/>
  <circle cx="26" cy="13" r="2.5" fill="#3a9a20"/>
  <circle cx="6" cy="8" r="2.5" fill="#3a9a20"/>
  <!-- Roots stride B -->
  <ellipse cx="21" cy="30" rx="3" ry="2" fill="#4a2a10" transform="rotate(25,21,30)"/>
  <ellipse cx="11" cy="28" rx="3" ry="2" fill="#4a2a10" transform="rotate(-5,11,28)"/>
</svg>
