<svg xmlns="http://www.w3.org/2000/svg" viewBox="0 0 32 32">
  <!-- Body raised 1px -->
  <rect x="11" y="15" width="10" height="9" rx="2" fill="#888"/>
  <line x1="16" y1="15" x2="16" y2="24" stroke="#666" stroke-width="0.8"/>
  <ellipse cx="16" cy="10" rx="8" ry="6" fill="#44aa33"/>
  <circle cx="11" cy="7" r="3" fill="#55cc44"/>
  <circle cx="21" cy="7" r="3" fill="#55cc44"/>
  <circle cx="11" cy="6.5" r="1.5" fill="#111"/>
  <circle cx="21" cy="6.5" r="1.5" fill="#111"/>
  <circle cx="10.5" cy="6" r="0.7" fill="#ffff44"/>
  <circle cx="20.5" cy="6" r="0.7" fill="#ffff44"/>
  <path d="M10,12 Q16,15 22,12" stroke="#1a6a0a" stroke-width="1.5" fill="none"/>
  <rect x="9" y="12" width="14" height="3" rx="1" fill="#777"/>
  <ellipse cx="7" cy="19" rx="4" ry="5" fill="#666"/>
  <ellipse cx="7" cy="19" rx="3" ry="4" fill="#888"/>
  <circle cx="7" cy="19" r="1.5" fill="#aaa"/>
  <rect x="24" y="13" width="2" height="10" rx="0.5" fill="#ccc"/>
  <rect x="22" y="17" width="6" height="1.5" rx="0.5" fill="#aaa"/>
  <ellipse cx="12" cy="26" rx="4" ry="3" fill="#44aa33" transform="rotate(20,12,26)"/>
  <ellipse cx="20" cy="26" rx="4" ry="3" fill="#44aa33" transform="rotate(-20,20,26)"/>
  <ellipse cx="10" cy="29" rx="3" ry="1.5" fill="#33882a"/>
  <ellipse cx="22" cy="29" rx="3" ry="1.5" fill="#33882a"/>
</svg>
