<svg xmlns="http://www.w3.org/2000/svg" viewBox="0 0 32 32">
  <!-- Head bobbed down slightly -->
  <rect x="9" y="2" width="14" height="12" rx="2" fill="#888"/>
  <rect x="9" y="2" width="14" height="5" rx="2" fill="#aaa"/>
  <line x1="13" y1="3" x2="14" y2="8" stroke="#666" stroke-width="0.8"/>
  <line x1="19" y1="4" x2="18" y2="9" stroke="#666" stroke-width="0.8"/>
  <rect x="11" y="6" width="4" height="3" rx="1" fill="#ff6600"/>
  <rect x="17" y="6" width="4" height="3" rx="1" fill="#ff6600"/>
  <rect x="12" y="6.5" width="2.5" height="2" rx="0.5" fill="#ffaa00"/>
  <rect x="18" y="6.5" width="2.5" height="2" rx="0.5" fill="#ffaa00"/>
  <rect x="7" y="14" width="18" height="12" rx="2" fill="#888"/>
  <text x="16" y="23" text-anchor="middle" font-size="7" fill="#ff6600" font-family="monospace">⬡</text>
  <rect x="0" y="14" width="7" height="11" rx="2" fill="#888"/>
  <rect x="25" y="14" width="7" height="11" rx="2" fill="#888"/>
  <rect x="0" y="23" width="8" height="6" rx="2" fill="#777"/>
  <rect x="24" y="23" width="8" height="6" rx="2" fill="#777"/>
  <rect x="9" y="26" width="6" height="6" rx="1" fill="#777"/>
  <rect x="17" y="26" width="6" height="6" rx="1" fill="#777"/>
</svg>
