<svg xmlns="http://www.w3.org/2000/svg" viewBox="0 0 32 32">
  <!-- Collar/shoulder (navy) -->
  <ellipse cx="25.323" cy="18.506" rx="5.571" ry="1.948" fill="#000080"/>
  <ellipse cx="7.207"  cy="18.447" rx="5.649" ry="2.357" fill="#000080"/>
  <!-- Body + legs: left leg back (foot at y=28.5), right leg forward (foot at y=31.5) -->
  <path d="M 11.967,14.892 L 0.745,28.482 H 9.866 l 3.508,-2.320 5.028,0.078 3.625,5.242 h 9.121 l -10.754,-13.551 Z" fill="#0021cc"/>
    <!-- Head dome / hair -->
  <path d="M 3.785,5.003 C 2.265,2.355 8.346,-0.293 15.946,0.590 23.547,-0.293 29.628,2.355 28.107,5.003 31.148,5.886 31.148,10.299 25.067,11.181 23.547,12.947 17.467,13.829 12.906,12.947 8.346,13.829 3.785,12.064 3.785,9.416 0.745,8.534 0.745,5.886 3.785,5.003 Z" fill="#aa1100"/>
  <!-- Face -->
  <ellipse cx="15.946" cy="9.416" rx="9.881" ry="6.620" fill="#f4c07a"/>
  <!-- Eyes -->
  <path d="m 11.386,8.975 q 1.520,-0.441 3.040,0" stroke="#333" stroke-width="0.8" fill="none"/>
  <path d="m 17.467,8.975 q 1.520,-0.441 3.040,0" stroke="#333" stroke-width="0.8" fill="none"/>
  <!-- Smile -->
  <path d="m 12.146,12.064 q 3.800,1.765 7.601,0" stroke="#333" stroke-width="0.8" fill="none"/>
  <!-- Lapels -->
  <path d="M 12.906,22.655 9.866,18.242" stroke="#001a99" stroke-width="1" fill="none"/>
  <path d="m 18.987,22.655 3.040,-4.413" stroke="#001a99" stroke-width="1" fill="none"/>
  <!-- Boutonnière -->
  <path d="M 22.027,20.890 21.267,20.008" stroke="#550000" stroke-width="0.5" fill="none"/>
  <path d="m 22.027,20.890 1.520,-0.883" stroke="#ff7400" stroke-width="0.5" fill="none"/>
  <ellipse cx="22.027" cy="21.773" rx="1.520" ry="0.883" fill="#ff6600"/>
</svg>
