<svg xmlns="http://www.w3.org/2000/svg" viewBox="0 0 32 32">
  <!-- Left wing lowered -->
  <path d="M12,14 L0,20 L2,13 L0,10 L9,13 Z" fill="#226644"/>
  <!-- Right wing lowered -->
  <path d="M20,14 L32,20 L30,13 L32,10 L23,13 Z" fill="#226644"/>
  <!-- Wing feather detail -->
  <line x1="12" y1="14" x2="1" y2="18" stroke="#338855" stroke-width="0.8"/>
  <line x1="12" y1="14" x2="2" y2="12" stroke="#338855" stroke-width="0.8"/>
  <line x1="20" y1="14" x2="31" y2="18" stroke="#338855" stroke-width="0.8"/>
  <line x1="20" y1="14" x2="30" y2="12" stroke="#338855" stroke-width="0.8"/>
  <!-- Body -->
  <ellipse cx="16" cy="18" rx="5" ry="5" fill="#f4c07a"/>
  <ellipse cx="16" cy="20" rx="3.5" ry="3" fill="#338855"/>
  <!-- Head -->
  <ellipse cx="16" cy="11" rx="4.5" ry="4" fill="#f4c07a"/>
  <!-- Hair/crest -->
  <path d="M12,10 Q16,4 20,10" fill="#118833"/>
  <!-- Eyes -->
  <circle cx="14.5" cy="11" r="0.9" fill="#333"/>
  <circle cx="17.5" cy="11" r="0.9" fill="#333"/>
  <!-- Beak -->
  <path d="M15,13 L16,14.5 L17,13" fill="#cc8822"/>
  <!-- Talons -->
  <line x1="13" y1="22" x2="11" y2="27" stroke="#667733" stroke-width="2"/>
  <line x1="19" y1="22" x2="21" y2="27" stroke="#667733" stroke-width="2"/>
  <line x1="11" y1="27" x2="9" y2="30" stroke="#667733" stroke-width="1.5"/>
  <line x1="11" y1="27" x2="12" y2="30" stroke="#667733" stroke-width="1.5"/>
  <line x1="21" y1="27" x2="19" y2="30" stroke="#667733" stroke-width="1.5"/>
  <line x1="21" y1="27" x2="22" y2="30" stroke="#667733" stroke-width="1.5"/>
</svg>
