<svg xmlns="http://www.w3.org/2000/svg" viewBox="0 0 32 32">
  <!-- Ground -->
  <ellipse cx="16" cy="30" rx="12" ry="2" fill="#3a2a1a"/>
  <!-- Hut walls -->
  <rect x="5" y="18" width="22" height="12" rx="1" fill="#8a6a3a"/>
  <rect x="5" y="18" width="22" height="3" fill="#9a7a4a"/>
  <!-- Thatched roof -->
  <polygon points="3,19 16,6 29,19" fill="#6a5a20"/>
  <polygon points="5,19 16,8 27,19" fill="#8a7230"/>
  <polygon points="7,19 16,10 25,19" fill="#9a8040"/>
  <!-- Door -->
  <rect x="13" y="23" width="6" height="7" rx="1" fill="#5a3a1a"/>
  <rect x="13.5" y="23.5" width="5" height="6" fill="#6a4a2a"/>
  <!-- Windows with green cross (healer symbol) -->
  <rect x="7" y="20" width="5" height="5" rx="0.5" fill="#c8e8c0"/>
  <rect x="9" y="19.5" width="1" height="6" fill="#22aa44"/>
  <rect x="7" y="22" width="5" height="1" fill="#22aa44"/>
  <rect x="20" y="20" width="5" height="5" rx="0.5" fill="#c8e8c0"/>
  <rect x="22" y="19.5" width="1" height="6" fill="#22aa44"/>
  <rect x="20" y="22" width="5" height="1" fill="#22aa44"/>
  <!-- Healing aura particles -->
  <circle cx="8" cy="14" r="1" fill="#44ee66" opacity="0.7"/>
  <circle cx="24" cy="12" r="0.8" fill="#66ff88" opacity="0.6"/>
  <circle cx="16" cy="3" r="1.2" fill="#22cc44" opacity="0.5"/>
  <circle cx="11" cy="5" r="0.7" fill="#44ee66" opacity="0.4"/>
  <circle cx="21" cy="7" r="0.8" fill="#66ff88" opacity="0.4"/>
</svg>
