<svg xmlns="http://www.w3.org/2000/svg" viewBox="0 0 32 32">
  <!-- Body (raised 1px) -->
  <ellipse cx="14" cy="20" rx="12" ry="9" fill="#774422"/>
  <ellipse cx="14" cy="19" rx="10" ry="7" fill="#885533" opacity="0.5"/>
  <!-- Head -->
  <ellipse cx="26" cy="15" rx="7" ry="6" fill="#774422"/>
  <ellipse cx="24" cy="10" rx="4" ry="3" fill="#885533"/>
  <!-- Ear -->
  <ellipse cx="20" cy="12" rx="3" ry="4" fill="#663311"/>
  <ellipse cx="20" cy="12" rx="2" ry="3" fill="#774422"/>
  <!-- Eye -->
  <circle cx="28" cy="13" r="1.5" fill="#111"/>
  <circle cx="28.3" cy="12.7" r="0.5" fill="#553322"/>
  <!-- Trunk -->
  <path d="M31,17 Q34,21 32,27 Q29,31 27,29" stroke="#663311" stroke-width="4" fill="none"/>
  <!-- Tusks -->
  <path d="M29,18 Q35,19 34,25" stroke="#ffffcc" stroke-width="2.5" fill="none"/>
  <path d="M27,19 Q32,22 30,27" stroke="#eeeebb" stroke-width="2" fill="none"/>
  <!-- Legs: mid-stride, all slightly bent -->
  <rect x="5" y="27" width="5" height="4" rx="1" fill="#663311"/>
  <rect x="11" y="27" width="5" height="4" rx="1" fill="#663311"/>
  <rect x="17" y="27" width="5" height="4" rx="1" fill="#663311"/>
  <rect x="2" y="27" width="4" height="4" rx="1" fill="#663311"/>
</svg>
