<svg xmlns="http://www.w3.org/2000/svg" viewBox="0 0 32 32">
  <!-- Wings flap up -->
  <ellipse cx="10" cy="14" rx="7" ry="4" fill="#aaffee" opacity="0.7" transform="rotate(-35 10 14)"/>
  <ellipse cx="22" cy="14" rx="7" ry="4" fill="#aaffee" opacity="0.7" transform="rotate(35 22 14)"/>
  <ellipse cx="10" cy="18" rx="5" ry="3" fill="#88ffdd" opacity="0.5" transform="rotate(30 10 18)"/>
  <ellipse cx="22" cy="18" rx="5" ry="3" fill="#88ffdd" opacity="0.5" transform="rotate(-30 22 18)"/>
  <!-- Body slightly raised -->
  <ellipse cx="16" cy="17" rx="3" ry="5" fill="#ffaadd"/>
  <circle cx="16" cy="11" r="4" fill="#ffccaa"/>
  <path d="M12,10 Q16,6 20,10 Q18,7 16,6.5 Q14,7 12,10 Z" fill="#66aa00"/>
  <circle cx="14.5" cy="11" r="1.2" fill="#00aaff"/>
  <circle cx="17.5" cy="11" r="1.2" fill="#00aaff"/>
  <circle cx="14.8" cy="10.8" r="0.5" fill="#fff"/>
  <circle cx="17.8" cy="10.8" r="0.5" fill="#fff"/>
  <path d="M14,13 Q16,14.5 18,13" stroke="#aa6688" stroke-width="0.8" fill="none"/>
  <!-- Wand aimed upward -->
  <line x1="20" y1="13" x2="28" y2="7" stroke="#c8a020" stroke-width="1.2"/>
  <circle cx="28" cy="7" r="1.5" fill="#ffee00"/>
  <circle cx="30" cy="5" r="0.8" fill="#ffee00" opacity="0.8"/>
  <circle cx="26" cy="4" r="0.6" fill="#ffee00" opacity="0.6"/>
  <!-- Legs kicked back -->
  <line x1="15" y1="21" x2="13" y2="25" stroke="#ffaadd" stroke-width="1.5"/>
  <line x1="17" y1="21" x2="19" y2="25" stroke="#ffaadd" stroke-width="1.5"/>
  <ellipse cx="13" cy="25.5" rx="1.5" ry="0.8" fill="#ff88bb"/>
  <ellipse cx="19" cy="25.5" rx="1.5" ry="0.8" fill="#ff88bb"/>
</svg>
