<svg xmlns="http://www.w3.org/2000/svg" viewBox="0 0 32 32">
  <!-- Wings flap down -->
  <ellipse cx="10" cy="18" rx="7" ry="4" fill="#aaffee" opacity="0.7" transform="rotate(15 10 18)"/>
  <ellipse cx="22" cy="18" rx="7" ry="4" fill="#aaffee" opacity="0.7" transform="rotate(-15 22 18)"/>
  <ellipse cx="10" cy="22" rx="5" ry="3" fill="#88ffdd" opacity="0.5" transform="rotate(-10 10 22)"/>
  <ellipse cx="22" cy="22" rx="5" ry="3" fill="#88ffdd" opacity="0.5" transform="rotate(10 22 22)"/>
  <!-- Body dips slightly -->
  <ellipse cx="16" cy="19" rx="3" ry="5" fill="#ffaadd"/>
  <circle cx="16" cy="13" r="4" fill="#ffccaa"/>
  <path d="M12,12 Q16,8 20,12 Q18,9 16,8.5 Q14,9 12,12 Z" fill="#66aa00"/>
  <circle cx="14.5" cy="13" r="1.2" fill="#00aaff"/>
  <circle cx="17.5" cy="13" r="1.2" fill="#00aaff"/>
  <circle cx="14.8" cy="12.8" r="0.5" fill="#fff"/>
  <circle cx="17.8" cy="12.8" r="0.5" fill="#fff"/>
  <path d="M14,15 Q16,16.5 18,15" stroke="#aa6688" stroke-width="0.8" fill="none"/>
  <line x1="20" y1="16" x2="27" y2="10" stroke="#c8a020" stroke-width="1.2"/>
  <circle cx="27" cy="10" r="1.5" fill="#ffee00"/>
  <circle cx="29" cy="8" r="0.8" fill="#ffee00" opacity="0.8"/>
  <circle cx="25" cy="7" r="0.6" fill="#ffee00" opacity="0.6"/>
  <!-- Legs dangling -->
  <line x1="15" y1="23" x2="13" y2="27" stroke="#ffaadd" stroke-width="1.5"/>
  <line x1="17" y1="23" x2="19" y2="27" stroke="#ffaadd" stroke-width="1.5"/>
  <ellipse cx="13" cy="27.5" rx="1.5" ry="0.8" fill="#ff88bb"/>
  <ellipse cx="19" cy="27.5" rx="1.5" ry="0.8" fill="#ff88bb"/>
</svg>
