<svg xmlns="http://www.w3.org/2000/svg" viewBox="0 0 32 32">
  <!-- Swooping left -->
  <ellipse cx="15" cy="25" rx="6" ry="4" fill="#7755aa" opacity="0.4"/>
  <ellipse cx="14" cy="28" rx="4" ry="3" fill="#6644aa" opacity="0.3"/>
  <ellipse cx="15" cy="19" rx="7" ry="8" fill="#9966cc" opacity="0.7"/>
  <path d="M10,16 Q15,20 20,16" stroke="#7744aa" stroke-width="1" fill="none" opacity="0.8"/>
  <circle cx="15" cy="10" r="5.5" fill="#bbaadd" opacity="0.85"/>
  <ellipse cx="12.5" cy="9" rx="2" ry="2.5" fill="#221133"/>
  <ellipse cx="17.5" cy="9" rx="2" ry="2.5" fill="#221133"/>
  <ellipse cx="12.5" cy="9" rx="1" ry="1.5" fill="#aa66ff" opacity="0.9"/>
  <ellipse cx="17.5" cy="9" rx="1" ry="1.5" fill="#aa66ff" opacity="0.9"/>
  <path d="M11,5 Q10,2 12,4" stroke="#9966cc" stroke-width="1" fill="none" opacity="0.7"/>
  <path d="M15,4 Q15,1 15,3" stroke="#bb88ee" stroke-width="1.2" fill="none" opacity="0.8"/>
  <!-- Claws reaching forward -->
  <ellipse cx="7" cy="16" rx="4" ry="2.5" fill="#9966cc" opacity="0.7" transform="rotate(-25,7,16)"/>
  <line x1="4" y1="15" x2="2" y2="13" stroke="#bbaadd" stroke-width="0.8"/>
  <line x1="4.5" y1="16.5" x2="2.5" y2="15" stroke="#bbaadd" stroke-width="0.8"/>
  <ellipse cx="24" cy="18" rx="4" ry="2.5" fill="#9966cc" opacity="0.7" transform="rotate(5,24,18)"/>
</svg>
