<svg xmlns="http://www.w3.org/2000/svg" viewBox="0 0 32 32">
  <ellipse cx="16" cy="6.5" rx="6" ry="6" fill="#2a2a2a"/>
  <path d="M10,7.5 Q16,0.5 22,7.5 Q19,3.5 16,3 Q13,3.5 10,7.5 Z" fill="#1a1a1a"/>
  <ellipse cx="14" cy="7" rx="1.5" ry="1" fill="#00ddaa"/>
  <ellipse cx="18" cy="7" rx="1.5" ry="1" fill="#00ddaa"/>
  <rect x="10" y="9.5" width="12" height="3" rx="1" fill="#1a1a1a"/>
  <rect x="11" y="11.5" width="10" height="10" rx="2" fill="#2a2a2a"/>
  <rect x="11" y="18.5" width="10" height="2" fill="#3a2800"/>
  <rect x="12" y="18.5" width="2" height="2.5" fill="#2a1a00"/>
  <rect x="18" y="18.5" width="2" height="2.5" fill="#2a1a00"/>
  <rect x="12" y="21.5" width="3" height="8" rx="1" fill="#1a1a1a"/>
  <rect x="17" y="21.5" width="3" height="8" rx="1" fill="#1a1a1a"/>
  <rect x="11" y="27.5" width="4" height="3" rx="1" fill="#1a0a00"/>
  <rect x="17" y="27.5" width="4" height="3" rx="1" fill="#1a0a00"/>
  <!-- Daggers level -->
  <rect x="6" y="14" width="1.5" height="8" rx="0.5" fill="#aaa" transform="rotate(20 6.75 18)"/>
  <rect x="24" y="14" width="1.5" height="8" rx="0.5" fill="#aaa" transform="rotate(-20 24.75 18)"/>
</svg>
