<svg xmlns="http://www.w3.org/2000/svg" viewBox="0 0 32 32">
  <circle cx="16.5" cy="9" r="7" fill="#e8ddb0"/>
  <ellipse cx="13" cy="8.5" rx="2.5" ry="2" fill="#111"/>
  <ellipse cx="20" cy="8.5" rx="2.5" ry="2" fill="#111"/>
  <path d="M15.5,11 L16.5,13.5 L17.5,11 Z" fill="#111"/>
  <rect x="11.5" y="13" width="10" height="2.5" rx="0.5" fill="#d8cca0"/>
  <line x1="14" y1="13" x2="14" y2="15.5" stroke="#111" stroke-width="0.7"/>
  <line x1="16.5" y1="13" x2="16.5" y2="15.5" stroke="#111" stroke-width="0.7"/>
  <line x1="19" y1="13" x2="19" y2="15.5" stroke="#111" stroke-width="0.7"/>
  <rect x="15.5" y="15.5" width="2" height="2" fill="#c8c0a0"/>
  <rect x="16" y="17.5" width="1" height="8" fill="#c8c0a0"/>
  <line x1="16" y1="19" x2="10" y2="21" stroke="#c8c0a0" stroke-width="1.2"/>
  <line x1="17" y1="19" x2="23" y2="21" stroke="#c8c0a0" stroke-width="1.2"/>
  <line x1="16" y1="22" x2="10" y2="24" stroke="#c8c0a0" stroke-width="1.2"/>
  <line x1="17" y1="22" x2="23" y2="24" stroke="#c8c0a0" stroke-width="1.2"/>
  <ellipse cx="16.5" cy="26.5" rx="4" ry="1.5" fill="#c8c0a0"/>
  <!-- arms neutral -->
  <line x1="16" y1="20" x2="9" y2="22" stroke="#c8c0a0" stroke-width="1.4"/>
  <line x1="17" y1="20" x2="24" y2="22" stroke="#c8c0a0" stroke-width="1.4"/>
  <rect x="12" y="27" width="2.5" height="5" rx="0.5" fill="#c8c0a0"/>
  <rect x="17.5" y="27" width="2.5" height="5" rx="0.5" fill="#c8c0a0"/>
</svg>
