<svg xmlns="http://www.w3.org/2000/svg" viewBox="0 0 32 32">
  <!-- Wispy body, tilted right -->
  <path d="M10,28 Q7,20 10,14 Q13,8 16,6 Q19,8 22,14 Q25,20 22,28 Q19,25 16,28 Q13,25 10,28 Z" fill="#aabbff" opacity="0.85"/>
  <!-- Inner glow -->
  <path d="M12,26 Q10,20 12,15 Q14,10 16,9 Q18,10 20,15 Q22,20 20,26 Q18,24 16,26 Q14,24 12,26 Z" fill="#ddeeff" opacity="0.6"/>
  <!-- Eyes (slightly shifted) -->
  <ellipse cx="13.5" cy="14" rx="2.5" ry="3" fill="#6699ff"/>
  <ellipse cx="19.5" cy="14" rx="2.5" ry="3" fill="#6699ff"/>
  <ellipse cx="13.5" cy="14" rx="1.5" ry="2" fill="#aaccff"/>
  <ellipse cx="19.5" cy="14" rx="1.5" ry="2" fill="#aaccff"/>
  <!-- Arms (right more extended) -->
  <path d="M10,18 Q5,16 3,19 Q6,19 9,20" stroke="#aabbff" stroke-width="2" fill="none" opacity="0.8"/>
  <path d="M22,18 Q29,16 31,19 Q28,19 25,20" stroke="#aabbff" stroke-width="2" fill="none" opacity="0.8"/>
  <!-- Bottom wisps -->
  <path d="M12,27 Q9,31 10,32" stroke="#8899dd" stroke-width="1.5" fill="none" opacity="0.7"/>
  <path d="M16,28 Q15,31 14,32" stroke="#8899dd" stroke-width="1.5" fill="none" opacity="0.7"/>
  <path d="M20,27 Q23,31 22,32" stroke="#8899dd" stroke-width="1.5" fill="none" opacity="0.7"/>
</svg>
