<svg xmlns="http://www.w3.org/2000/svg" viewBox="0 0 32 32">
  <ellipse cx="16" cy="8" rx="9" ry="8" fill="#5a7a3a"/>
  <ellipse cx="16" cy="5" rx="8" ry="3" fill="#4a6a2a"/>
  <ellipse cx="12" cy="7" rx="2.5" ry="2" fill="#ffdd00"/>
  <ellipse cx="20" cy="7" rx="2.5" ry="2" fill="#ffdd00"/>
  <circle cx="12.5" cy="7" r="1" fill="#111"/>
  <circle cx="20.5" cy="7" r="1" fill="#111"/>
  <ellipse cx="16" cy="11" rx="2.5" ry="1.5" fill="#4a6a2a"/>
  <circle cx="14.5" cy="11" r="1" fill="#3a5a1a"/>
  <circle cx="17.5" cy="11" r="1" fill="#3a5a1a"/>
  <path d="M11,13 Q16,16 21,13" stroke="#3a5a1a" stroke-width="1.5" fill="none"/>
  <rect x="13" y="14" width="2" height="3" rx="0.5" fill="#ddd"/>
  <rect x="17" y="14" width="2" height="3" rx="0.5" fill="#ddd"/>
  <ellipse cx="16" cy="22" rx="10" ry="8" fill="#5a7a3a"/>
  <!-- Left arm forward -->
  <ellipse cx="4" cy="20" rx="4" ry="3" fill="#5a7a3a" transform="rotate(-15 4 20)"/>
  <circle cx="2" cy="23" r="3" fill="#4a6a2a"/>
  <!-- Right arm back -->
  <ellipse cx="27" cy="22" rx="4" ry="3" fill="#5a7a3a" transform="rotate(10 27 22)"/>
  <circle cx="29" cy="25" r="3" fill="#4a6a2a"/>
  <!-- Legs: left forward -->
  <ellipse cx="11" cy="29" rx="4" ry="3" fill="#4a6a2a" transform="rotate(-8 11 29)"/>
  <ellipse cx="21" cy="31" rx="4" ry="3" fill="#4a6a2a"/>
</svg>
