<svg xmlns="http://www.w3.org/2000/svg" viewBox="0 0 32 32">
  <!-- Body raised -->
  <rect x="11" y="22" width="4" height="7" rx="1" fill="#8b5e3c"/>
  <rect x="17" y="22" width="4" height="7" rx="1" fill="#8b5e3c"/>
  <rect x="10" y="13" width="12" height="11" rx="2" fill="#8b5e3c"/>
  <line x1="16" y1="13" x2="16" y2="24" stroke="#6b3e1c" stroke-width="0.8"/>
  <rect x="10" y="20" width="12" height="2" rx="0.5" fill="#5a3010"/>
  <circle cx="16" cy="9" r="5" fill="#c8956a"/>
  <line x1="13" y1="7" x2="15" y2="11" stroke="#cc3333" stroke-width="1.5"/>
  <line x1="17" y1="7" x2="19" y2="11" stroke="#cc3333" stroke-width="1.5"/>
  <circle cx="14" cy="8.5" r="1.5" fill="#111"/>
  <circle cx="18" cy="8.5" r="1.5" fill="#111"/>
  <rect x="11" y="6" width="10" height="2" rx="1" fill="#cc4400"/>
  <ellipse cx="7" cy="19" rx="4" ry="5" fill="#8b5e3c"/>
  <ellipse cx="7" cy="19" rx="3" ry="4" fill="#ddbb88"/>
  <line x1="4" y1="17" x2="10" y2="17" stroke="#8b5e3c" stroke-width="0.8"/>
  <line x1="4" y1="21" x2="10" y2="21" stroke="#8b5e3c" stroke-width="0.8"/>
  <!-- Drumstick striking down -->
  <line x1="22" y1="15" x2="26" y2="19" stroke="#8b5e3c" stroke-width="2"/>
  <circle cx="26" cy="20" r="2" fill="#6b3e1c"/>
</svg>
