<svg xmlns="http://www.w3.org/2000/svg" viewBox="0 0 32 32">
  <!-- Airborne leap frame -->
  <ellipse cx="16" cy="6" rx="7" ry="6" fill="#6a5a4a"/>
  <polygon points="10,2 8,-1 13,3" fill="#5a4a3a"/>
  <polygon points="22,2 24,-1 19,3" fill="#5a4a3a"/>
  <polygon points="10.5,2 9,0 13,3" fill="#cc8888"/>
  <polygon points="21.5,2 23,0 19,3" fill="#cc8888"/>
  <ellipse cx="16" cy="9" rx="4" ry="3" fill="#7a6a5a"/>
  <ellipse cx="16" cy="8" rx="2" ry="1.2" fill="#222"/>
  <ellipse cx="13" cy="6" rx="1.8" ry="1.5" fill="#ffcc00"/>
  <ellipse cx="19" cy="6" rx="1.8" ry="1.5" fill="#ffcc00"/>
  <circle cx="13.4" cy="6" r="0.8" fill="#111"/>
  <circle cx="19.4" cy="6" r="0.8" fill="#111"/>
  <polygon points="14,11 13,13 15,11" fill="#eee"/>
  <polygon points="18,11 17,13 19,11" fill="#eee"/>
  <ellipse cx="16" cy="19" rx="8" ry="9" fill="#6a5a4a"/>
  <path d="M13,12 Q16,15 19,12 Q16,17 13,12 Z" fill="#8a7a6a"/>
  <!-- Both arms spread wide mid-leap -->
  <ellipse cx="4" cy="16" rx="4" ry="3" fill="#6a5a4a" transform="rotate(-35 4 16)"/>
  <ellipse cx="28" cy="16" rx="4" ry="3" fill="#6a5a4a" transform="rotate(35 28 16)"/>
  <line x1="1" y1="18" x2="-1" y2="20" stroke="#ccc" stroke-width="1"/>
  <line x1="31" y1="18" x2="33" y2="20" stroke="#ccc" stroke-width="1"/>
  <!-- Legs tucked up -->
  <ellipse cx="11" cy="26" rx="4" ry="3" fill="#5a4a3a" transform="rotate(20 11 26)"/>
  <ellipse cx="21" cy="26" rx="4" ry="3" fill="#5a4a3a" transform="rotate(-20 21 26)"/>
</svg>
